<svg width="40px" height="40px" viewBox="0 0 1.6 1.6" version="1.1" xmlns="http://www.w3.org/2000/svg" xmlns:xlink="http://www.w3.org/1999/xlink"><path fill="#f7df1e" d="M0.482 0.398h0.188v0.526c0 0.237 -0.114 0.32 -0.295 0.32 -0.044 0 -0.101 -0.007 -0.138 -0.02l0.021 -0.152a0.31 0.31 0 0 0 0.096 0.015c0.079 0 0.128 -0.036 0.128 -0.164zm0.35 0.639c0.049 0.026 0.128 0.052 0.209 0.052 0.086 0 0.132 -0.036 0.132 -0.091 0 -0.051 -0.04 -0.081 -0.139 -0.116 -0.138 -0.049 -0.23 -0.126 -0.23 -0.248 0 -0.142 0.12 -0.249 0.315 -0.249 0.095 0 0.163 0.018 0.212 0.042l-0.042 0.151a0.39 0.39 0 0 0 -0.173 -0.04c-0.081 0 -0.121 0.038 -0.121 0.08 0 0.053 0.046 0.077 0.154 0.118 0.147 0.054 0.215 0.131 0.215 0.249 0 0.139 -0.106 0.258 -0.334 0.258 -0.095 0 -0.189 -0.026 -0.236 -0.052l0.038 -0.154z"/></svg>