<svg xmlns="http://www.w3.org/2000/svg" width="40" height="35.938" viewBox="0 0 40 35.938"><path fill="#00435B" d="m24.684 22.264 -0.767 1.332a1.295 1.295 0 0 1 -1.122 0.649H16.917a1.295 1.295 0 0 1 -1.122 -0.649l-0.767 -1.332zm2.148 -3.73 -1.353 2.349h-11.247l-1.353 -2.349zm-1.303 -3.647 1.305 2.267H12.878l1.305 -2.267zm-2.734 -3.448a1.295 1.295 0 0 1 1.122 0.649l0.817 1.419H14.978l0.817 -1.419a1.295 1.295 0 0 1 1.122 -0.649z"/><path fill="#002B3B" d="M8.363 10.821c-0.651 -3.157 -0.791 -5.579 -0.37 -7.337 0.25 -1.046 0.708 -1.899 1.404 -2.515 0.735 -0.65 1.663 -0.969 2.707 -0.969 1.722 0 3.532 0.785 5.466 2.277 0.789 0.608 1.608 1.342 2.458 2.2 0.068 -0.087 0.144 -0.169 0.23 -0.245 2.404 -2.142 4.428 -3.473 6.159 -3.987 1.029 -0.305 1.996 -0.334 2.876 -0.038 0.929 0.313 1.669 0.959 2.192 1.864 0.862 1.494 1.089 3.457 0.768 5.881 -0.131 0.988 -0.355 2.064 -0.671 3.23 0.119 0.014 0.239 0.041 0.357 0.08 3.05 1.011 5.21 2.098 6.518 3.34 0.778 0.739 1.286 1.562 1.47 2.473 0.194 0.961 0.005 1.926 -0.517 2.83 -0.86 1.492 -2.442 2.668 -4.696 3.6 -0.905 0.374 -1.929 0.713 -3.073 1.018 0.052 0.118 0.093 0.243 0.12 0.374 0.651 3.157 0.791 5.579 0.37 7.337 -0.25 1.046 -0.708 1.899 -1.404 2.515 -0.735 0.65 -1.663 0.969 -2.707 0.969 -1.722 0 -3.532 -0.785 -5.466 -2.277 -0.797 -0.615 -1.625 -1.357 -2.485 -2.228a1.828 1.828 0 0 1 -0.326 0.382c-2.404 2.143 -4.428 3.473 -6.159 3.987 -1.029 0.305 -1.996 0.334 -2.876 0.038 -0.929 -0.313 -1.669 -0.959 -2.192 -1.864 -0.862 -1.494 -1.089 -3.457 -0.768 -5.881 0.136 -1.024 0.371 -2.142 0.706 -3.357a1.828 1.828 0 0 1 -0.392 -0.084c-3.05 -1.011 -5.21 -2.098 -6.518 -3.34 -0.778 -0.739 -1.286 -1.562 -1.47 -2.473 -0.194 -0.961 -0.005 -1.926 0.517 -2.83 0.86 -1.492 2.442 -2.668 4.696 -3.6 0.932 -0.385 1.99 -0.733 3.175 -1.045a1.875 1.875 0 0 1 -0.099 -0.325"/><path fill="#FF4154" d="M29.632 25.208a0.576 0.576 0 0 1 0.662 0.439l0.004 0.018 0.032 0.168q1.573 8.268 -2.216 8.268 -3.706 0 -9.436 -7.055a0.576 0.576 0 0 1 0.434 -0.938h0.018l0.201 0.001q2.411 0.013 4.688 -0.168 2.688 -0.214 5.613 -0.732M12.288 21.042l0.01 0.016 0.101 0.176q1.213 2.109 2.528 4.004 1.549 2.231 3.483 4.518a0.576 0.576 0 0 1 -0.048 0.794l-0.015 0.013 -0.13 0.112q-6.4 5.484 -8.319 2.189 -1.879 -3.224 1.362 -11.726a0.575 0.575 0 0 1 1.028 -0.097m19.509 -8.133 0.018 0.006 0.161 0.055q7.9 2.748 6.002 6.04 -1.855 3.22 -10.788 4.688a0.575 0.575 0 0 1 -0.59 -0.86q1.279 -2.176 2.305 -4.331 1.163 -2.443 2.182 -5.245a0.576 0.576 0 0 1 0.693 -0.359zM13.195 11.986a0.575 0.575 0 0 1 0.205 0.788q-1.28 2.176 -2.305 4.331 -1.163 2.443 -2.182 5.245a0.576 0.576 0 0 1 -0.71 0.353l-0.018 -0.006 -0.161 -0.055Q0.125 19.894 2.022 16.602 3.877 13.383 12.81 11.914c0.133 -0.022 0.269 0.003 0.385 0.072m16.907 -9.023q1.879 3.225 -1.362 11.726a0.575 0.575 0 0 1 -1.028 0.097l-0.01 -0.016 -0.101 -0.176q-1.213 -2.109 -2.528 -4.004 -1.549 -2.231 -3.483 -4.518a0.576 0.576 0 0 1 0.048 -0.794l0.015 -0.013 0.13 -0.112q6.4 -5.484 8.319 -2.19M12.102 1.655q3.706 0 9.436 7.055a0.576 0.576 0 0 1 -0.434 0.938h-0.018l-0.201 -0.001q-2.411 -0.013 -4.688 0.168 -2.688 0.214 -5.613 0.732a0.576 0.576 0 0 1 -0.662 -0.439l-0.004 -0.018 -0.032 -0.168Q8.313 1.655 12.102 1.655"/><path fill="#FFD94C" d="M17.39 11.511h4.934a2.014 2.014 0 0 1 1.747 1.012l2.477 4.317a2.014 2.014 0 0 1 0 2.005l-2.477 4.317a2.014 2.014 0 0 1 -1.747 1.012h-4.934c-0.722 0 -1.388 -0.386 -1.747 -1.012L13.166 18.845a2.014 2.014 0 0 1 0 -2.005l2.477 -4.317a2.014 2.014 0 0 1 1.747 -1.012m4.182 1.303c0.722 0 1.389 0.386 1.748 1.013l1.727 3.014a2.014 2.014 0 0 1 0 2.003l-1.727 3.014a2.014 2.014 0 0 1 -1.748 1.013h-3.43c-0.722 0 -1.389 -0.386 -1.748 -1.013l-1.727 -3.014a2.014 2.014 0 0 1 0 -2.003l1.727 -3.014a2.014 2.014 0 0 1 1.747 -1.013zm-0.81 1.425h-1.809a2.014 2.014 0 0 0 -1.747 1.011l-0.913 1.589a2.014 2.014 0 0 0 0 2.007l0.913 1.589a2.014 2.014 0 0 0 1.747 1.011h1.809c0.721 0 1.388 -0.386 1.747 -1.011l0.913 -1.589a2.014 2.014 0 0 0 0 -2.007l-0.913 -1.589a2.014 2.014 0 0 0 -1.747 -1.011m-0.78 1.364c0.721 0 1.386 0.385 1.746 1.009l0.13 0.225a2.014 2.014 0 0 1 0 2.01l-0.13 0.225a2.014 2.014 0 0 1 -1.746 1.009h-0.248a2.014 2.014 0 0 1 -1.746 -1.009l-0.13 -0.225a2.014 2.014 0 0 1 0 -2.01l0.13 -0.225a2.014 2.014 0 0 1 1.746 -1.009zm-0.124 1.344a0.897 0.897 0 0 0 -0.777 0.448 0.895 0.895 0 0 0 0 0.896 0.897 0.897 0 0 0 1.553 0 0.895 0.895 0 0 0 0 -0.896 0.897 0.897 0 0 0 -0.776 -0.448m-7.267 0.896h1.613"/></svg>