<svg width="40px" height="40px" viewBox="0 0 1.6 1.6" xmlns="http://www.w3.org/2000/svg"><title>file_type_mysql</title><path d="M0.439 0.343a0.15 0.15 0 0 0 -0.039 0.005V0.35h0.002a0.325 0.325 0 0 0 0.031 0.039c0.008 0.015 0.014 0.031 0.022 0.046l0.002 -0.002a0.054 0.054 0 0 0 0.02 -0.048 0.2 0.2 0 0 1 -0.012 -0.02c-0.006 -0.01 -0.018 -0.014 -0.026 -0.022" style="fill:#5d87a1;fill-rule:evenodd"/><path d="M1.389 1.178a0.443 0.443 0 0 0 -0.186 0.027c-0.014 0.006 -0.037 0.006 -0.039 0.024 0.008 0.008 0.009 0.02 0.015 0.031a0.225 0.225 0 0 0 0.05 0.058c0.02 0.015 0.04 0.031 0.061 0.044 0.037 0.023 0.079 0.036 0.116 0.059 0.021 0.013 0.042 0.031 0.063 0.045 0.011 0.008 0.017 0.02 0.031 0.025v-0.003a0.2 0.2 0 0 0 -0.015 -0.031c-0.01 -0.01 -0.019 -0.018 -0.029 -0.028a0.455 0.455 0 0 0 -0.1 -0.097c-0.031 -0.021 -0.098 -0.05 -0.11 -0.085l-0.002 -0.002a0.385 0.385 0 0 0 0.066 -0.015c0.033 -0.009 0.062 -0.007 0.096 -0.015 0.015 -0.004 0.043 -0.013 0.043 -0.013v-0.015c-0.017 -0.017 -0.029 -0.04 -0.047 -0.056a1.265 1.265 0 0 0 -0.156 -0.116c-0.029 -0.019 -0.067 -0.031 -0.098 -0.047 -0.011 -0.006 -0.03 -0.009 -0.037 -0.018a0.38 0.38 0 0 1 -0.039 -0.073 2.35 2.35 0 0 1 -0.078 -0.165 1 1 0 0 0 -0.048 -0.108A0.955 0.955 0 0 0 0.58 0.25a0.45 0.45 0 0 0 -0.121 -0.039c-0.024 -0.001 -0.047 -0.003 -0.071 -0.004a0.38 0.38 0 0 1 -0.043 -0.033C0.291 0.14 0.152 0.066 0.112 0.164 0.087 0.225 0.15 0.286 0.172 0.317A0.45 0.45 0 0 1 0.22 0.388c0.007 0.016 0.009 0.033 0.015 0.05a1.15 1.15 0 0 0 0.049 0.127 0.45 0.45 0 0 0 0.035 0.059c0.008 0.01 0.021 0.015 0.024 0.032a0.27 0.27 0 0 0 -0.022 0.071 0.417 0.417 0 0 0 0.027 0.318c0.015 0.024 0.051 0.076 0.099 0.056 0.043 -0.017 0.033 -0.071 0.045 -0.118 0.003 -0.011 0.001 -0.019 0.007 -0.027v0.009s0.024 0.053 0.036 0.08a0.54 0.54 0 0 0 0.12 0.13A0.175 0.175 0 0 1 0.7 1.233V1.25h0.021a0.053 0.053 0 0 0 -0.021 -0.039 0.47 0.47 0 0 1 -0.048 -0.058 1.25 1.25 0 0 1 -0.103 -0.176c-0.015 -0.03 -0.028 -0.063 -0.04 -0.093 -0.006 -0.012 -0.006 -0.029 -0.015 -0.035a0.365 0.365 0 0 0 -0.044 0.066 0.57 0.57 0 0 0 -0.026 0.146c-0.004 0.001 -0.002 0 -0.004 0.002 -0.029 -0.008 -0.04 -0.04 -0.051 -0.067a0.438 0.438 0 0 1 -0.008 -0.258c0.006 -0.02 0.034 -0.084 0.023 -0.103 -0.006 -0.018 -0.024 -0.029 -0.034 -0.044a0.4 0.4 0 0 1 -0.033 -0.062C0.296 0.475 0.285 0.415 0.261 0.361a0.52 0.52 0 0 0 -0.046 -0.074A0.48 0.48 0 0 1 0.164 0.211c-0.005 -0.011 -0.011 -0.028 -0.004 -0.04a0.015 0.015 0 0 1 0.013 -0.013c0.012 -0.011 0.046 0.003 0.058 0.009a0.46 0.46 0 0 1 0.091 0.048c0.013 0.01 0.043 0.034 0.043 0.034h0.009c0.031 0.007 0.065 0.002 0.094 0.011a0.615 0.615 0 0 1 0.138 0.066 0.85 0.85 0 0 1 0.298 0.327c0.012 0.022 0.016 0.042 0.027 0.065 0.02 0.047 0.045 0.095 0.065 0.141a0.63 0.63 0 0 0 0.068 0.128c0.014 0.02 0.072 0.031 0.098 0.041a0.7 0.7 0 0 1 0.066 0.027c0.033 0.02 0.065 0.043 0.096 0.065 0.015 0.012 0.063 0.035 0.066 0.055" style="fill:#00758f;fill-rule:evenodd"/></svg>