<svg width="40px" height="40px" viewBox="0 0 1.6 1.6" fill="none" xmlns="http://www.w3.org/2000/svg"><path d="M1.089 1.078a0.106 0.106 0 0 0 0.095 -0.109c-0.002 -0.056 -0.05 -0.101 -0.107 -0.101h-0.004a0.106 0.106 0 0 0 -0.103 0.109c0.002 0.028 0.013 0.053 0.03 0.069 -0.065 0.126 -0.164 0.218 -0.313 0.295 -0.101 0.053 -0.206 0.071 -0.311 0.058 -0.086 -0.011 -0.153 -0.049 -0.195 -0.111 -0.061 -0.092 -0.067 -0.191 -0.015 -0.291 0.036 -0.071 0.094 -0.124 0.13 -0.15a1 1 0 0 1 -0.025 -0.096c-0.277 0.197 -0.248 0.464 -0.164 0.589 0.063 0.094 0.191 0.152 0.332 0.152 0.038 0 0.076 -0.004 0.115 -0.013 0.244 -0.047 0.429 -0.19 0.534 -0.402m0.336 -0.233c-0.145 -0.167 -0.359 -0.259 -0.603 -0.259h-0.03a0.105 0.105 0 0 0 -0.094 -0.056h-0.004a0.106 0.106 0 0 0 -0.103 0.109c0.002 0.056 0.05 0.101 0.107 0.101h0.004a0.107 0.107 0 0 0 0.094 -0.064h0.034c0.145 0 0.283 0.041 0.407 0.122 0.095 0.062 0.164 0.143 0.202 0.24 0.033 0.079 0.03 0.156 -0.004 0.221 -0.054 0.099 -0.143 0.154 -0.262 0.154 -0.076 0 -0.149 -0.023 -0.187 -0.039a1.15 1.15 0 0 1 -0.086 0.068c0.082 0.038 0.166 0.058 0.246 0.058 0.183 0 0.319 -0.1 0.37 -0.199 0.055 -0.109 0.052 -0.296 -0.092 -0.456M0.456 1.11c0.002 0.056 0.05 0.101 0.107 0.101h0.004a0.106 0.106 0 0 0 0.103 -0.109c-0.002 -0.056 -0.05 -0.101 -0.107 -0.101h-0.004c-0.004 0 -0.01 0 -0.013 0.002 -0.078 -0.128 -0.111 -0.267 -0.099 -0.417 0.008 -0.113 0.046 -0.21 0.113 -0.291 0.055 -0.069 0.162 -0.103 0.235 -0.105 0.202 -0.004 0.288 0.244 0.294 0.343 0.025 0.006 0.067 0.019 0.095 0.028 -0.023 -0.304 -0.214 -0.462 -0.397 -0.462 -0.172 0 -0.33 0.122 -0.393 0.302 -0.088 0.24 -0.03 0.471 0.076 0.653 -0.01 0.013 -0.015 0.034 -0.013 0.054" fill="#764ABC"/></svg>