<svg width="40" height="40" viewBox="0 0 40 40" fill="none" xmlns="http://www.w3.org/2000/svg"><path d="M17.242 35.971c-0.523 -0.049 -1.14 -0.138 -1.369 -0.199s-0.514 -0.111 -0.631 -0.111 -0.327 -0.048 -0.466 -0.106a32 32 0 0 0 -1.304 -0.456c-0.852 -0.284 -1.167 -0.427 -1.665 -0.754a45 45 0 0 0 -1.294 -0.811c-1.524 -0.911 -2.75 -2.127 -3.955 -3.922 -0.84 -1.251 -1.64 -3.252 -2.037 -5.097 -0.1 -0.466 -0.124 -0.872 -0.122 -2.107 0.003 -1.401 0.019 -1.606 0.192 -2.447 0.28 -1.356 0.726 -2.653 1.294 -3.763 0.549 -1.073 0.784 -1.468 1.069 -1.796 0.232 -0.266 0.238 -0.4 0.062 -1.204 -0.25 -1.137 -0.295 -1.561 -0.259 -2.422 0.031 -0.726 0.069 -0.94 0.28 -1.576 0.307 -0.921 0.592 -1.461 1.022 -1.932 0.348 -0.38 0.968 -0.84 1.264 -0.936 0.49 -0.16 1.661 0.048 2.413 0.428 0.414 0.209 1.231 0.986 1.644 1.563 0.168 0.234 0.344 0.425 0.394 0.425s0.374 -0.11 0.721 -0.244c0.868 -0.335 2.255 -0.674 3.3 -0.807 0.48 -0.061 1.079 -0.145 1.331 -0.186 0.919 -0.152 3.08 0.048 4.526 0.419 0.288 0.074 0.547 0.107 0.579 0.075s0.13 -0.263 0.217 -0.512c0.087 -0.25 0.207 -0.521 0.265 -0.602s0.209 -0.3 0.334 -0.487c0.34 -0.509 1.32 -1.399 1.945 -1.765 0.786 -0.461 1.47 -0.668 2.084 -0.631 0.62 0.038 1.022 0.231 1.524 0.733 1.239 1.239 1.337 3.48 0.27 6.207 -0.15 0.384 -0.272 0.737 -0.272 0.785s0.188 0.291 0.417 0.54a16.6 16.6 0 0 1 1.769 2.333c0.226 0.367 0.442 0.668 0.481 0.668s0.337 -0.092 0.662 -0.204c0.544 -0.187 0.631 -0.198 1.069 -0.144 0.262 0.033 0.542 0.095 0.623 0.138 0.28 0.15 0.724 0.469 0.872 0.628 0.21 0.225 0.428 0.745 0.474 1.133 0.042 0.355 -0.108 1.004 -0.302 1.302a8 8 0 0 0 -0.284 0.508c-0.204 0.399 -0.945 0.997 -1.389 1.121l-0.283 0.079 0.002 1.474c0.002 1.466 -0.067 2.191 -0.285 3.003a20 20 0 0 0 -0.154 0.612c-0.03 0.131 -0.161 0.559 -0.292 0.951 -0.659 1.97 -1.815 3.804 -3.44 5.46 -1.376 1.401 -2.234 2.02 -4.07 2.933 -1.834 0.912 -2.836 1.282 -4.366 1.612 -0.826 0.178 -3.414 0.228 -4.86 0.093m4.86 -0.161c1.415 -0.306 2.353 -0.65 4.078 -1.495 1.325 -0.649 1.934 -1.006 2.711 -1.586 1.278 -0.954 2.897 -2.769 3.782 -4.239 0.628 -1.042 1.301 -2.616 1.526 -3.568 0.031 -0.131 0.102 -0.406 0.157 -0.612 0.221 -0.823 0.286 -1.531 0.281 -3.036l-0.005 -1.507 0.222 -0.042c0.274 -0.051 0.967 -0.507 1.234 -0.811 0.32 -0.364 0.766 -1.327 0.808 -1.746 0.048 -0.465 -0.156 -1.082 -0.459 -1.396 -0.454 -0.468 -0.905 -0.714 -1.427 -0.78 -0.456 -0.057 -0.528 -0.047 -1.074 0.148a8 8 0 0 1 -0.679 0.22c-0.051 0.006 -0.283 -0.297 -0.515 -0.674a17.5 17.5 0 0 0 -1.752 -2.352c-0.253 -0.288 -0.46 -0.57 -0.46 -0.628 0 -0.057 0.122 -0.412 0.272 -0.788 1.27 -3.186 0.892 -5.661 -1.02 -6.7 -0.184 -0.1 -0.376 -0.129 -0.849 -0.129 -0.706 0.001 -1.1 0.136 -2.014 0.688 -1.038 0.627 -1.996 1.708 -2.374 2.676l-0.209 0.534c-0.072 0.183 0.01 0.188 -1.283 -0.081 -1.395 -0.29 -3.382 -0.412 -4.094 -0.252 -0.159 0.036 -0.604 0.096 -0.988 0.135a13 13 0 0 0 -2.972 0.66c-1.32 0.456 -1.253 0.458 -1.641 -0.056 -1.031 -1.366 -2.1 -2.002 -3.432 -2.04 -0.483 -0.014 -0.547 0.002 -0.913 0.219 -0.892 0.529 -1.487 1.365 -1.94 2.724 -0.176 0.528 -0.218 0.78 -0.248 1.476 -0.036 0.862 0.008 1.284 0.259 2.422 0.182 0.829 0.173 0.946 -0.098 1.28 -0.127 0.156 -0.408 0.604 -0.624 0.997 -0.918 1.662 -1.358 2.824 -1.702 4.486 -0.174 0.842 -0.19 1.044 -0.193 2.447 -0.003 1.621 0.04 1.965 0.405 3.243 0.344 1.206 1.18 3.077 1.754 3.928 1.226 1.817 2.424 3.008 3.871 3.849 0.27 0.157 0.752 0.46 1.07 0.672s0.704 0.452 0.86 0.53c0.443 0.226 2.464 0.9 2.878 0.961 0.206 0.03 0.512 0.093 0.68 0.14 1.028 0.287 4.922 0.338 6.117 0.08m1.197 -9.807a1.2 1.2 0 0 1 -0.276 -0.326c-0.149 -0.288 -0.314 -1.421 -0.278 -1.911 0.018 -0.243 0.033 -0.464 0.034 -0.49 0.003 -0.073 0.364 -0.394 0.443 -0.394 0.094 0 0.227 0.444 0.166 0.556 -0.041 0.075 0.021 0.512 0.178 1.262 0.018 0.084 0.062 0.153 0.099 0.153 0.075 0 0.078 -0.509 0.009 -1.348 -0.026 -0.312 -0.022 -0.582 0.009 -0.601s0.172 0.042 0.313 0.135c0.238 0.158 0.266 0.211 0.378 0.732 0.201 0.93 0.043 1.927 -0.354 2.239a0.56 0.56 0 0 1 -0.723 -0.007m-11.171 -1.114c-0.299 -0.13 -0.865 -0.67 -1 -0.956 -0.163 -0.343 -0.171 -0.674 -0.032 -1.335 0.153 -0.73 0.32 -1.066 0.724 -1.454 0.347 -0.332 0.578 -0.422 1.25 -0.482 0.351 -0.032 0.554 -0.009 0.923 0.102 0.582 0.177 0.686 0.329 0.53 0.777 -0.118 0.338 -0.123 0.39 -0.04 0.39 0.034 0 0.13 -0.108 0.211 -0.24 0.119 -0.193 0.167 -0.225 0.244 -0.162 0.108 0.09 0.129 0.402 0.027 0.402a0.07 0.07 0 0 0 -0.068 0.071c0 0.039 0.054 0.062 0.119 0.051q0.119 -0.02 0.141 0.133c0.012 0.084 -0.011 0.153 -0.051 0.153s-0.073 0.033 -0.073 0.073 0.057 0.054 0.128 0.032c0.093 -0.03 0.138 0.001 0.169 0.114 0.078 0.292 0.043 0.515 -0.158 1.008 -0.218 0.535 -0.562 0.947 -0.963 1.154 -0.488 0.252 -1.668 0.347 -2.08 0.168m0.932 -0.591c0.065 -0.209 0.227 -0.605 0.36 -0.88s0.262 -0.577 0.285 -0.671c0.042 -0.167 0.04 -0.166 -0.126 0.03 -0.17 0.201 -0.789 1.65 -0.789 1.847 0 0.227 0.159 0.036 0.271 -0.326m0.478 0.166c0 -0.061 0.173 -0.457 0.384 -0.88 0.212 -0.424 0.363 -0.793 0.336 -0.82 -0.073 -0.073 -0.287 0.238 -0.457 0.662a3 3 0 0 1 -0.212 0.456c-0.092 0.12 -0.251 0.681 -0.206 0.726 0.062 0.062 0.156 -0.025 0.156 -0.144m1.244 -0.545c0.203 -0.325 0.264 -0.493 0.182 -0.493 -0.086 0 -0.474 0.538 -0.474 0.656 0 0.168 0.133 0.094 0.293 -0.163m-3.112 -0.208c-0.021 -0.021 -0.076 0 -0.122 0.047 -0.066 0.067 -0.059 0.075 0.038 0.038 0.067 -0.026 0.105 -0.064 0.084 -0.084m0.236 -0.013a0.07 0.07 0 0 0 -0.068 -0.068 0.07 0.07 0 0 0 -0.068 0.068c0 0.037 0.031 0.068 0.068 0.068a0.07 0.07 0 0 0 0.068 -0.068m2.583 -0.28c0 -0.109 -0.13 -0.063 -0.201 0.071 -0.12 0.223 -0.075 0.321 0.068 0.15 0.073 -0.088 0.133 -0.188 0.133 -0.221m-3.126 -0.136c0 -0.033 -0.061 -0.06 -0.136 -0.06 -0.13 0 -0.184 0.133 -0.091 0.226 0.052 0.052 0.227 -0.077 0.227 -0.166m0.737 -0.097c0.043 -0.096 0.079 -0.188 0.079 -0.207 0 -0.077 -0.336 0.217 -0.338 0.295 -0.004 0.152 0.178 0.09 0.259 -0.088m0.665 -1.263c0.192 -0.4 0.209 -0.474 0.11 -0.455 -0.146 0.027 -0.629 0.954 -0.627 1.204 0.001 0.177 0.002 0.177 0.145 -0.047 0.079 -0.124 0.247 -0.439 0.372 -0.702m0.567 0.522c-0.001 -0.04 -0.047 -0.012 -0.102 0.06 -0.055 0.073 -0.099 0.164 -0.098 0.204s0.047 0.013 0.102 -0.06a0.46 0.46 0 0 0 0.098 -0.204m-1.901 -0.147c0 -0.046 0.02 -0.14 0.044 -0.208 0.028 -0.078 -0.009 -0.058 -0.102 0.056 -0.081 0.1 -0.146 0.252 -0.144 0.34 0.002 0.155 0.005 0.156 0.102 0.027a0.5 0.5 0 0 0 0.1 -0.215m0.326 0.164c0.111 -0.111 0.102 -0.191 -0.02 -0.191 -0.056 0 -0.102 0.013 -0.102 0.029s-0.019 0.077 -0.041 0.136c-0.049 0.127 0.047 0.142 0.164 0.026m2.164 -0.17c-0.028 -0.028 -0.08 -0.006 -0.114 0.049 -0.105 0.166 -0.074 0.239 0.049 0.116 0.063 -0.063 0.092 -0.137 0.064 -0.165m-1.896 -0.546c0.027 -0.081 -0.296 -0.179 -0.394 -0.119a0.16 0.16 0 0 0 -0.065 0.121c0 0.1 0.425 0.097 0.458 -0.002m1.377 -0.387c0 -0.016 0.018 -0.076 0.041 -0.136 0.056 -0.147 -0.061 -0.135 -0.255 0.026l-0.16 0.134 0.186 0.002c0.103 0.001 0.187 -0.01 0.187 -0.026m0.544 -0.353c0 -0.056 -0.03 -0.083 -0.068 -0.06 -0.037 0.023 -0.068 0.088 -0.068 0.144s0.031 0.083 0.068 0.06 0.068 -0.088 0.068 -0.144m-0.68 -0.094c0 -0.037 -0.013 -0.068 -0.03 -0.068s-0.049 0.031 -0.072 0.068 -0.01 0.068 0.03 0.068 0.072 -0.03 0.072 -0.068m11.487 2.432c0 -0.142 0.704 -0.285 0.897 -0.182q0.316 0.17 -0.444 0.242c-0.378 0.036 -0.454 0.025 -0.454 -0.06m1.087 -0.188c0 -0.083 0.374 -0.276 1.065 -0.548 0.293 -0.115 0.65 -0.286 0.794 -0.38s0.277 -0.155 0.295 -0.137c0.068 0.068 -0.572 0.478 -1.25 0.801 -0.69 0.329 -0.904 0.391 -0.904 0.264m8.36 -3.736a2.7 2.7 0 0 1 -0.51 -0.182c-0.23 -0.112 -0.269 -0.161 -0.252 -0.317 0.014 -0.129 -0.012 -0.184 -0.085 -0.184a0.104 0.104 0 0 0 -0.104 0.102c0 0.166 -0.105 0.118 -0.358 -0.161 -0.469 -0.519 -0.533 -1.13 -0.197 -1.864 0.247 -0.54 0.756 -1.156 1.105 -1.34 0.305 -0.16 0.84 -0.235 1.244 -0.174 0.336 0.05 0.988 0.526 0.991 0.722 0 0.058 0.046 0.165 0.101 0.238 0.154 0.203 0.133 0.364 -0.041 0.319 -0.105 -0.027 -0.136 -0.012 -0.112 0.058 0.019 0.052 0.091 0.09 0.161 0.083s0.148 0.02 0.172 0.059c0.063 0.102 0.021 0.718 -0.056 0.819a0.5 0.5 0 0 0 -0.072 0.246 0.5 0.5 0 0 1 -0.105 0.272c-0.053 0.061 -0.085 0.142 -0.071 0.18 0.035 0.096 -0.712 0.874 -0.961 1a1.27 1.27 0 0 1 -0.85 0.124m0.26 -0.224c-0.028 -0.192 -0.26 -0.253 -0.26 -0.068 0 0.154 0.056 0.22 0.186 0.22 0.06 0 0.087 -0.056 0.074 -0.152m1.372 -2.974c0 -0.037 -0.032 -0.068 -0.072 -0.068s-0.053 0.031 -0.03 0.068 0.056 0.068 0.072 0.068 0.03 -0.03 0.03 -0.068m-1.224 -0.21c0 -0.032 -0.046 -0.04 -0.102 -0.018a0.17 0.17 0 0 0 -0.102 0.142c0 0.084 0.019 0.087 0.102 0.018 0.056 -0.047 0.102 -0.111 0.102 -0.142m-16.175 2.128c0 -0.33 0.474 -1.369 0.894 -1.958 0.401 -0.563 0.577 -0.759 0.976 -1.089a8 8 0 0 1 3.306 -1.668c0.895 -0.224 2.652 -0.191 2.958 0.055 0.114 0.092 0.09 0.097 -0.248 0.062 -2.24 -0.234 -4.045 0.292 -5.821 1.696 -0.36 0.284 -0.636 0.575 -0.845 0.891 -0.466 0.702 -0.848 1.381 -0.982 1.746 -0.131 0.354 -0.236 0.472 -0.236 0.265m4.598 -0.558c-0.252 -0.075 -0.452 -0.259 -0.452 -0.414 0 -0.172 0.359 -0.562 0.704 -0.764 0.273 -0.16 1.197 -0.436 1.561 -0.466 0.229 -0.019 0.724 0.216 0.734 0.348 0.042 0.575 -0.507 1.088 -1.356 1.268q-0.753 0.16 -1.19 0.028m-16.694 -0.27c0 -0.056 0.03 -0.148 0.066 -0.204 0.058 -0.09 0.066 -0.09 0.066 0 0 0.056 -0.03 0.148 -0.066 0.204 -0.059 0.091 -0.066 0.091 -0.066 0m0.27 -0.765c0 -0.056 0.046 -0.14 0.102 -0.187 0.083 -0.069 0.102 -0.066 0.102 0.018 0 0.056 -0.046 0.14 -0.102 0.186 -0.083 0.069 -0.102 0.066 -0.102 -0.017m0.272 -0.65c0 -0.084 0.188 -0.323 0.224 -0.285 0.052 0.055 -0.078 0.34 -0.154 0.34 -0.039 0 -0.07 -0.025 -0.07 -0.055m0.274 -0.455c-0.001 -0.037 0.06 -0.16 0.134 -0.272s0.134 -0.158 0.134 -0.102c-0.001 0.113 -0.266 0.482 -0.268 0.374m2.52 -0.446c-0.445 -0.732 -0.794 -2.428 -0.739 -3.591 0.052 -1.092 0.346 -1.67 1.06 -2.09 0.341 -0.2 0.624 -0.188 1.164 0.049 0.527 0.232 2.178 2.062 2.178 2.416 0 0.042 -0.049 0.118 -0.109 0.168 -0.093 0.076 -0.123 0.073 -0.194 -0.026 -0.19 -0.259 -0.485 -0.035 -0.315 0.238 0.067 0.107 0.062 0.164 -0.025 0.297 -0.131 0.2 -0.308 0.214 -0.357 0.028 -0.02 -0.074 -0.08 -0.136 -0.134 -0.136 -0.078 0 -0.089 0.063 -0.054 0.297 0.04 0.267 0.023 0.32 -0.17 0.541 -0.185 0.211 -0.244 0.239 -0.424 0.203 -0.199 -0.04 -0.207 -0.033 -0.164 0.138 0.036 0.144 0 0.229 -0.182 0.428l-0.227 0.248 -0.152 -0.258c-0.136 -0.231 -0.163 -0.247 -0.256 -0.154 -0.088 0.088 -0.091 0.146 -0.019 0.385 0.064 0.213 0.066 0.322 0.007 0.451 -0.098 0.215 -0.174 0.215 -0.272 0 -0.042 -0.094 -0.125 -0.17 -0.183 -0.17 -0.084 0 -0.102 0.071 -0.086 0.354 0.016 0.29 -0.002 0.358 -0.098 0.378 -0.074 0.015 -0.166 -0.056 -0.25 -0.194m19.434 -4.445c-0.268 -0.322 -2.165 -1.469 -2.992 -1.808a3 3 0 0 1 -0.435 -0.207c-0.096 -0.084 0.488 -0.924 0.983 -1.417 0.5 -0.497 1.171 -0.923 1.558 -0.988 0.329 -0.056 0.755 0.059 1.008 0.272 0.354 0.298 0.832 1.721 0.696 2.072a2.4 2.4 0 0 0 -0.094 0.51 2.4 2.4 0 0 1 -0.139 0.603 1.4 1.4 0 0 0 -0.111 0.37c0 0.14 -0.269 0.693 -0.338 0.693 -0.03 0 -0.091 -0.045 -0.136 -0.1M7.381 9.647c0.059 -0.444 0.653 -1.644 0.999 -2.019 0.365 -0.396 0.914 -0.709 1.37 -0.781 0.284 -0.045 0.451 -0.028 0.801 0.078 0.243 0.074 0.472 0.167 0.51 0.206q0.072 0.073 -0.102 0.02a4.6 4.6 0 0 0 -0.684 -0.084c-0.464 -0.03 -0.556 -0.013 -0.951 0.169 -0.241 0.111 -0.551 0.32 -0.69 0.466 -0.34 0.356 -0.906 1.324 -1.08 1.844 -0.078 0.234 -0.158 0.425 -0.179 0.425s-0.018 -0.146 0.005 -0.323m6.94 -0.224c-0.043 -0.07 0.183 -0.201 0.346 -0.201 0.09 0 0.098 0.02 0.036 0.095 -0.098 0.118 -0.334 0.184 -0.382 0.106m0.512 -0.197c0 -0.035 0.033 -0.084 0.074 -0.11 0.159 -0.098 1.062 -0.3 1.796 -0.402a3 3 0 0 0 0.476 -0.102c0.183 -0.075 2.149 -0.34 2.616 -0.353 0.457 -0.013 1.284 0.081 1.327 0.15 0.017 0.028 -0.404 0.048 -0.937 0.046 -1.272 -0.007 -2.316 0.149 -4.676 0.7 -0.669 0.156 -0.676 0.157 -0.676 0.072m11.589 -3.606c0.023 -0.038 0.055 -0.068 0.072 -0.068s0.03 0.03 0.03 0.068a0.07 0.07 0 0 1 -0.072 0.068c-0.04 0 -0.053 -0.031 -0.03 -0.068m0.638 -0.45c0.812 -0.546 1.519 -0.735 2.154 -0.575 0.426 0.107 1.346 0.821 1.058 0.821 -0.032 0 -0.116 -0.064 -0.187 -0.143s-0.282 -0.224 -0.469 -0.322c-0.294 -0.154 -0.423 -0.179 -0.952 -0.18 -0.532 0 -0.669 0.026 -1.054 0.199 -0.243 0.11 -0.523 0.255 -0.622 0.323s-0.206 0.123 -0.237 0.123 0.108 -0.111 0.308 -0.246" fill="#AD9686"/><path d="M17.039 35.767c-0.524 -0.048 -1.089 -0.126 -1.258 -0.173a7 7 0 0 0 -0.646 -0.139c-0.187 -0.03 -0.869 -0.236 -1.515 -0.46 -0.952 -0.329 -1.287 -0.48 -1.766 -0.798a37 37 0 0 0 -1.272 -0.8c-1.514 -0.903 -2.691 -2.07 -3.889 -3.854 -0.967 -1.44 -1.869 -3.863 -2.069 -5.555 -0.048 -0.402 -0.062 -1.178 -0.039 -2.018 0.044 -1.58 0.202 -2.502 0.671 -3.914 0.371 -1.116 1.362 -3.068 1.794 -3.534 0.287 -0.31 0.313 -0.488 0.167 -1.14 -0.246 -1.101 -0.289 -1.527 -0.26 -2.565 0.027 -0.929 0.049 -1.076 0.249 -1.661 0.41 -1.198 0.864 -1.852 1.668 -2.404l0.415 -0.284 0.68 0.018c1.078 0.03 1.757 0.308 2.505 1.028 0.257 0.247 0.606 0.644 0.777 0.882 0.446 0.622 0.562 0.655 1.32 0.374 0.336 -0.125 0.715 -0.239 0.841 -0.253s0.268 -0.057 0.316 -0.096c0.23 -0.188 2.338 -0.585 3.383 -0.637 1.41 -0.07 3.267 0.079 4.428 0.356 0.702 0.168 0.832 0.127 0.945 -0.29 0.102 -0.379 0.384 -1.008 0.452 -1.008 0.03 0 0.128 -0.139 0.218 -0.309 0.23 -0.434 1.245 -1.375 1.892 -1.755 0.826 -0.484 1.249 -0.605 2.015 -0.577 0.615 0.022 0.65 0.032 1.031 0.295 0.845 0.582 1.245 1.424 1.304 2.742 0.056 1.26 -0.153 2.381 -0.697 3.729 -0.131 0.324 -0.238 0.663 -0.238 0.753 0 0.106 0.156 0.333 0.448 0.65 0.62 0.674 1.369 1.678 1.831 2.452 0.214 0.358 0.412 0.651 0.44 0.651s0.181 -0.046 0.34 -0.102c0.393 -0.138 0.401 -0.131 0.091 0.093 -0.426 0.309 -0.815 0.812 -1.039 1.347 -0.36 0.857 -0.26 1.409 0.365 2.026 0.639 0.63 1.427 0.864 2.06 0.611 0.308 -0.123 1.137 -0.95 1.193 -1.189 0.022 -0.093 0.076 -0.292 0.121 -0.442s0.096 -0.46 0.112 -0.69c0.028 -0.377 0.047 -0.421 0.195 -0.449 0.158 -0.03 0.164 -0.017 0.164 0.355 0 0.449 -0.154 0.957 -0.344 1.128 -0.072 0.066 -0.132 0.162 -0.132 0.214 0 0.342 -0.894 1.139 -1.367 1.217 -0.135 0.022 -0.28 0.062 -0.322 0.088 -0.052 0.032 -0.084 0.602 -0.102 1.777 -0.032 2.099 -0.068 2.328 -0.676 4.313 -0.566 1.845 -1.793 3.812 -3.406 5.46 -1.334 1.362 -2.21 1.991 -4.034 2.899 -1.794 0.892 -2.777 1.26 -4.196 1.568 -0.718 0.156 -3.786 0.197 -5.165 0.07m4.588 -1.166c1.432 -0.218 3.312 -0.752 3.619 -1.028 0.065 -0.059 0.289 -0.176 0.496 -0.26 0.56 -0.228 1.016 -0.52 2.196 -1.409 1.436 -1.082 2.828 -2.361 3.41 -3.134a56 56 0 0 1 0.63 -0.823c0.374 -0.468 0.698 -0.98 0.912 -1.444 0.125 -0.271 0.243 -0.493 0.262 -0.493s0.06 0.069 0.093 0.153c0.057 0.148 0.061 0.148 0.106 0.017 0.026 -0.075 0.09 -0.243 0.142 -0.374 0.147 -0.365 0.49 -1.855 0.605 -2.634 0.106 -0.718 0.135 -2.547 0.047 -3.042 -0.048 -0.268 -0.058 -0.276 -0.638 -0.51 -0.632 -0.255 -1.153 -0.66 -1.283 -0.999 -0.214 -0.557 -0.2 -1.424 0.032 -1.926 0.06 -0.13 0.216 -0.404 0.345 -0.61 0.13 -0.206 0.236 -0.415 0.238 -0.466 0.004 -0.158 -0.709 -1.307 -1.23 -1.982 -1.006 -1.302 -2.062 -2.282 -3.266 -3.03 -2.381 -1.481 -4.412 -2.128 -7.532 -2.401 -0.712 -0.062 -2.188 -0.048 -2.302 0.023 -0.026 0.016 -0.367 0.065 -0.759 0.11s-0.773 0.106 -0.848 0.136 -0.487 0.138 -0.917 0.239c-1.637 0.384 -2.047 0.586 -1.728 0.851 0.114 0.095 0.436 0.692 0.436 0.809 0 0.038 -0.042 0.07 -0.094 0.07 -0.098 0 -0.45 -0.417 -0.45 -0.533 0 -0.036 -0.097 -0.148 -0.216 -0.248 -0.162 -0.136 -0.264 -0.173 -0.406 -0.144 -0.22 0.044 -0.305 -0.042 -0.159 -0.162 0.056 -0.046 0.101 -0.121 0.101 -0.166 0 -0.127 -0.944 -1.114 -1.593 -1.664 -0.487 -0.414 -0.668 -0.522 -1.109 -0.663 -0.816 -0.262 -1.441 -0.144 -2.186 0.414 -0.542 0.406 -1.18 1.594 -1.336 2.489 -0.159 0.911 -0.082 2.563 0.166 3.579 0.108 0.442 0.259 0.942 0.336 1.11 0.22 0.484 0.557 1.385 0.557 1.485 -0.001 0.108 -0.442 -0.404 -0.582 -0.677a0.9 0.9 0 0 1 -0.098 -0.325c0 -0.506 -0.469 0.044 -1.036 1.216 -0.787 1.626 -1.234 2.95 -1.49 4.418 -0.12 0.685 -0.117 2.916 0.005 3.704 0.182 1.18 0.722 2.873 1.202 3.772l0.326 0.616c0.13 0.245 0.284 0.486 0.343 0.535s0.108 0.128 0.108 0.175c0 0.118 0.719 1.069 1.176 1.556 0.275 0.293 0.408 0.388 0.494 0.355 0.079 -0.03 0.298 0.075 0.668 0.323a26 26 0 0 0 2.998 1.68c0.951 0.454 2.182 0.946 2.37 0.946 0.055 0 0.354 0.06 0.666 0.133 1.438 0.338 4.68 0.461 6.174 0.234m2.393 -6.389c-0.123 -0.054 -0.557 -0.124 -0.965 -0.157 -0.652 -0.052 -0.788 -0.086 -1.136 -0.283a8 8 0 0 1 -1.775 -1.315c-1.26 -1.209 -2.035 -2.532 -2.09 -3.564 -0.013 -0.251 -0.064 -0.479 -0.121 -0.544 -0.054 -0.061 -0.121 -0.279 -0.148 -0.484 -0.028 -0.205 -0.089 -0.434 -0.137 -0.51 -0.106 -0.168 -0.085 -1.216 0.028 -1.351 0.041 -0.05 0.056 -0.11 0.033 -0.133 -0.073 -0.073 -0.092 -0.448 -0.026 -0.489 0.035 -0.022 0.046 -0.131 0.024 -0.243 -0.044 -0.221 0.096 -0.997 0.191 -1.055 0.032 -0.02 0.058 -0.115 0.058 -0.212 0 -0.263 0.465 -1.185 0.618 -1.225 0.082 -0.022 0.13 -0.094 0.13 -0.197 0 -0.311 0.698 -1.251 1.031 -1.389 0.106 -0.044 0.192 -0.12 0.192 -0.17 0 -0.115 0.412 -0.504 0.534 -0.505 0.051 0 0.149 -0.072 0.219 -0.161 0.293 -0.372 1.588 -0.993 2.433 -1.165 0.887 -0.181 1.096 -0.196 1.096 -0.078 0 0.148 -0.151 0.215 -0.771 0.342 -0.293 0.06 -0.779 0.216 -1.079 0.346s-0.651 0.256 -0.779 0.28a0.55 0.55 0 0 0 -0.336 0.201c-0.056 0.086 -0.333 0.33 -0.614 0.542 -0.646 0.486 -0.95 0.8 -1.408 1.453 -0.528 0.754 -0.994 1.898 -0.994 2.443 0 0.172 -0.128 0.675 -0.202 0.792 -0.067 0.106 -0.022 1.7 0.054 1.951 0.038 0.123 0.089 0.346 0.114 0.496 0.186 1.101 1.18 2.86 2.058 3.642 0.715 0.636 1.817 1.22 3.005 1.593 0.491 0.154 1.807 0.156 2.515 0.003 3.222 -0.693 5.363 -3.057 5.71 -6.305 0.132 -1.239 -0.139 -2.782 -0.652 -3.716 -0.184 -0.334 -0.203 -0.484 -0.079 -0.614 0.069 -0.073 0.058 -0.081 -0.061 -0.045 -0.124 0.038 -0.219 -0.052 -0.635 -0.606 -0.5 -0.664 -1.221 -1.336 -1.768 -1.646a10 10 0 0 1 -0.585 -0.366c-0.442 -0.305 -1.313 -0.523 -2.305 -0.578 -0.646 -0.036 -0.869 -0.072 -0.897 -0.144 -0.071 -0.186 0.079 -0.224 0.596 -0.154 0.279 0.038 0.767 0.097 1.084 0.131 1.443 0.154 2.729 0.83 3.922 2.062 0.334 0.345 0.734 0.842 0.89 1.103 0.334 0.562 0.83 1.682 0.83 1.874 0 0.074 0.076 0.286 0.17 0.47s0.17 0.411 0.17 0.503 0.049 0.376 0.109 0.631c0.084 0.356 0.101 0.698 0.077 1.483 -0.03 0.985 -0.041 1.047 -0.315 1.826 -0.156 0.444 -0.371 0.98 -0.478 1.191 -0.412 0.816 -1.856 2.489 -2.616 3.031 -0.524 0.374 -1.441 0.754 -2.238 0.928 -0.812 0.178 -2.357 0.227 -2.68 0.086m-0.83 -1.842c-0.223 -0.081 -0.485 -0.406 -0.589 -0.731 -0.074 -0.234 -0.116 -0.658 -0.129 -1.328l-0.02 -0.986 -0.533 -0.102c-0.293 -0.056 -0.618 -0.163 -0.723 -0.238 -0.38 -0.272 -0.589 -0.455 -0.589 -0.516 0 -0.034 -0.059 -0.121 -0.131 -0.193s-0.152 -0.273 -0.178 -0.446c-0.06 -0.404 0.081 -0.731 0.489 -1.132l0.302 -0.296 0.558 0.001c0.307 0.001 0.848 0.033 1.204 0.071s0.86 0.053 1.122 0.032l0.476 -0.037 -0.019 -0.408a8 8 0 0 0 -0.093 -0.836c-0.068 -0.389 -0.064 -0.437 0.052 -0.521 0.07 -0.051 0.156 -0.074 0.192 -0.052 0.038 0.024 0.031 0.052 -0.016 0.068 -0.117 0.039 -0.101 0.352 0.02 0.399s0.136 0.371 0.022 0.485c-0.061 0.061 -0.052 0.111 0.04 0.213 0.086 0.095 0.108 0.19 0.077 0.333 -0.064 0.294 0.098 0.317 0.558 0.08a22 22 0 0 1 1.033 -0.48 8 8 0 0 0 0.918 -0.462c0.409 -0.273 0.621 -0.348 0.975 -0.346 0.365 0.002 0.447 0.054 0.721 0.458 0.178 0.263 0.19 0.315 0.126 0.544a17 17 0 0 0 -0.149 0.588c-0.092 0.394 -0.411 0.852 -0.918 1.315 -0.287 0.262 -0.574 0.423 -1.344 0.752 -0.538 0.23 -1.059 0.419 -1.158 0.419 -0.326 0 -0.875 0.147 -0.913 0.245 -0.02 0.053 0.01 0.167 0.067 0.254 0.158 0.241 0.183 1.234 0.03 1.184 -0.052 -0.017 -0.102 -0.222 -0.13 -0.525 -0.077 -0.852 -0.164 -1.062 -0.524 -1.264 -0.22 -0.124 -0.345 -0.157 -0.416 -0.113a0.2 0.2 0 0 1 -0.212 -0.006c-0.082 -0.052 -0.174 -0.03 -0.358 0.084 -0.291 0.18 -0.384 0.331 -0.39 0.633 -0.016 0.821 -0.032 1.047 -0.081 1.122 -0.034 0.053 -0.016 0.1 0.048 0.125 0.06 0.023 0.122 0.17 0.15 0.355 0.093 0.619 0.407 1.059 0.811 1.135 0.382 0.072 0.914 -0.431 0.915 -0.863 0 -0.251 0.066 -0.396 0.178 -0.396 0.158 0 0.112 0.438 -0.089 0.846 -0.128 0.26 -0.25 0.406 -0.401 0.478 -0.21 0.1 -0.77 0.131 -0.979 0.055m-1.497 -4.055c-0.001 -0.042 -0.061 -0.001 -0.134 0.092 -0.174 0.222 -0.172 0.354 0.002 0.146 0.074 -0.088 0.133 -0.195 0.132 -0.238m3.162 0.228c0.023 -0.037 0.01 -0.068 -0.03 -0.068s-0.072 0.031 -0.072 0.068 0.013 0.068 0.03 0.068c0.016 0 0.049 -0.03 0.072 -0.068m-2.7 -0.242c-0.023 -0.023 -0.078 0.03 -0.123 0.117 -0.078 0.152 -0.076 0.154 0.041 0.042 0.068 -0.064 0.104 -0.136 0.082 -0.159m0.45 0.135c0.064 -0.166 0.05 -0.188 -0.061 -0.097 -0.113 0.094 -0.135 0.204 -0.041 0.204 0.034 0 0.079 -0.048 0.102 -0.107m0.506 -0.059c0.015 -0.077 -0.009 -0.11 -0.068 -0.09 -0.05 0.016 -0.102 0.085 -0.115 0.151q-0.02 0.118 0.068 0.091c0.05 -0.017 0.102 -0.085 0.115 -0.152m2.458 -0.276c0.048 -0.17 0.069 -0.327 0.048 -0.348s-0.087 0.122 -0.146 0.32c-0.124 0.418 -0.124 0.421 -0.048 0.374 0.032 -0.02 0.098 -0.176 0.146 -0.346m-4.316 0.17c0.182 -0.201 0.085 -0.232 -0.102 -0.033 -0.088 0.093 -0.128 0.17 -0.09 0.17s0.125 -0.061 0.193 -0.136m4.86 -0.131c0 -0.171 -0.11 -0.238 -0.163 -0.1 -0.065 0.17 -0.049 0.232 0.061 0.232 0.056 0 0.102 -0.06 0.102 -0.132m-5.092 -0.227c0.059 -0.083 0.165 -0.24 0.235 -0.348l0.128 -0.197 -0.144 0.077c-0.13 0.07 -0.429 0.473 -0.429 0.58 0 0.09 0.106 0.033 0.21 -0.112m2.512 -0.19c0.042 -0.078 0.062 -0.156 0.044 -0.173 -0.041 -0.041 -0.252 0.17 -0.252 0.252 0 0.114 0.13 0.065 0.207 -0.079m-1.775 -0.022c0.06 -0.072 0.06 -0.108 0 -0.144 -0.073 -0.045 -0.196 0.072 -0.198 0.19 -0.002 0.084 0.112 0.058 0.198 -0.045m4.212 -0.546c0.105 -0.065 0.093 -0.242 -0.016 -0.242 -0.115 0 -0.25 0.29 -0.246 0.53l0.003 0.184 0.092 -0.213c0.051 -0.117 0.126 -0.234 0.167 -0.259m-1.179 0.092c0.06 -0.116 0.093 -0.226 0.075 -0.244 -0.032 -0.032 -0.248 0.332 -0.248 0.417 0 0.093 0.074 0.02 0.173 -0.173m-0.479 -0.135c0 -0.054 -0.076 -0.103 -0.17 -0.112 -0.093 -0.008 -0.132 0.002 -0.085 0.023s0.085 0.084 0.085 0.14 0.038 0.089 0.085 0.073 0.085 -0.072 0.085 -0.124m-1.325 -0.198c0 -0.037 -0.014 -0.068 -0.03 -0.068s-0.049 0.031 -0.072 0.068 -0.01 0.068 0.03 0.068 0.072 -0.03 0.072 -0.068m4.333 -0.175c-0.067 -0.067 -0.187 0.036 -0.187 0.16 0 0.104 0.009 0.103 0.115 -0.002 0.063 -0.063 0.096 -0.134 0.072 -0.158m1.512 -1.154c0 -0.193 -0.025 -0.234 -0.144 -0.234s-0.13 0.018 -0.062 0.099c0.045 0.054 0.062 0.132 0.036 0.173 -0.063 0.102 0.018 0.29 0.102 0.238 0.038 -0.023 0.068 -0.148 0.068 -0.276m-16.809 5.649c-0.36 -0.129 -0.681 -0.391 -1.099 -0.897 -0.344 -0.417 -0.363 -0.461 -0.404 -0.928a3.6 3.6 0 0 1 0.336 -1.8c0.128 -0.261 0.304 -0.462 0.643 -0.732 0.257 -0.205 0.552 -0.406 0.657 -0.447 0.3 -0.118 1.6 -0.161 1.943 -0.064 0.303 0.085 1.136 0.752 1.136 0.911 0 0.044 0.066 0.111 0.146 0.148 0.362 0.166 0.532 1.364 0.296 2.088 -0.198 0.606 -0.32 0.802 -0.741 1.182 -0.434 0.392 -0.614 0.465 -1.412 0.568 -0.686 0.09 -1.199 0.08 -1.501 -0.028m2.109 -0.364c0.7 -0.247 1.438 -1.482 1.308 -2.19 -0.098 -0.538 -0.388 -1.236 -0.576 -1.386a1.1 1.1 0 0 1 -0.26 -0.308c-0.12 -0.242 -0.645 -0.406 -1.306 -0.408 -0.718 -0.001 -1.076 0.089 -1.408 0.354 -0.52 0.417 -0.793 0.938 -0.97 1.855 -0.174 0.904 0.101 1.486 1.011 2.136 0.305 0.218 1.514 0.189 2.2 -0.053m9.369 -1.158c-0.03 -0.087 -0.037 -0.176 -0.014 -0.198 0.07 -0.07 0.12 0.034 0.094 0.198l-0.025 0.159zm0.705 -5.338c0 -0.094 -0.028 -0.244 -0.063 -0.335 -0.059 -0.156 -0.1 -0.167 -0.73 -0.198 -0.722 -0.035 -1.031 -0.143 -1.215 -0.424 -0.489 -0.746 1.184 -1.892 2.611 -1.79 0.809 0.058 1.29 0.423 1.209 0.919 -0.077 0.473 -0.596 0.95 -1.237 1.137 -0.378 0.11 -0.38 0.111 -0.33 0.328 0.09 0.39 0.072 0.488 -0.092 0.511 -0.124 0.018 -0.153 -0.011 -0.153 -0.148m0.573 -0.888c0.407 -0.199 0.826 -0.619 0.896 -0.897 0.079 -0.312 -0.046 -0.519 -0.401 -0.666l-0.323 -0.134 -0.661 0.157c-0.79 0.188 -1.219 0.404 -1.582 0.798 -0.308 0.334 -0.334 0.485 -0.116 0.682 0.306 0.277 0.402 0.3 1.123 0.269 0.578 -0.024 0.761 -0.06 1.064 -0.209m-10.496 0.826c-0.281 -0.14 -0.422 -0.495 -0.383 -0.966 0.028 -0.348 0.064 -0.434 0.243 -0.595 0.207 -0.185 0.553 -0.25 0.725 -0.136 0.148 0.098 0.301 0.494 0.342 0.886 0.04 0.378 0.031 0.41 -0.178 0.647 -0.236 0.27 -0.445 0.315 -0.749 0.163m-4.927 -3.135c-0.269 -0.421 -0.46 -0.938 -0.58 -1.57a9 9 0 0 0 -0.146 -0.65c-0.08 -0.278 -0.054 -0.584 0.046 -0.553 0.038 0.012 0.058 0.068 0.047 0.125s0.026 0.176 0.085 0.265c0.063 0.096 0.106 0.311 0.106 0.529 0 0.254 0.039 0.417 0.126 0.529 0.069 0.089 0.165 0.284 0.212 0.434s0.177 0.466 0.288 0.704c0.139 0.296 0.181 0.454 0.133 0.502s-0.148 -0.052 -0.316 -0.315m0.954 0.072a0.27 0.27 0 0 1 -0.095 -0.253c0.023 -0.166 0.024 -0.165 0.178 0.05 0.164 0.23 0.115 0.348 -0.083 0.203m0.55 -0.374c-0.106 -0.117 -0.282 -0.883 -0.218 -0.947 0.015 -0.015 0.064 0.044 0.11 0.132 0.046 0.087 0.157 0.247 0.247 0.355 0.265 0.319 0.131 0.76 -0.14 0.46m18.946 -0.786c-0.204 -0.204 -0.231 -0.273 -0.231 -0.584 0 -0.391 0.139 -0.69 0.381 -0.82 0.2 -0.107 0.313 -0.058 0.534 0.232 0.124 0.162 0.194 0.354 0.219 0.602 0.034 0.325 0.018 0.387 -0.146 0.582 -0.243 0.288 -0.459 0.285 -0.756 -0.012m-18.198 -0.029c-0.123 -0.136 -0.15 -0.388 -0.048 -0.451 0.097 -0.06 0.344 0.24 0.344 0.418 0 0.188 -0.14 0.204 -0.296 0.033m0.742 -0.798c-0.122 -0.122 -0.136 -0.288 -0.036 -0.437 0.058 -0.086 0.094 -0.072 0.237 0.089 0.205 0.232 0.223 0.455 0.038 0.455a0.4 0.4 0 0 1 -0.238 -0.107m0.611 -0.52c-0.12 -0.171 -0.135 -0.378 -0.039 -0.529 0.056 -0.088 0.084 -0.082 0.205 0.038a0.83 0.83 0 0 1 0.181 0.391c0.036 0.222 0.024 0.251 -0.1 0.251 -0.078 0 -0.189 -0.068 -0.247 -0.151m-4.299 -0.67a0.3 0.3 0 0 0 -0.066 -0.278c-0.075 -0.083 -0.093 -0.176 -0.058 -0.308 0.027 -0.105 0.058 -0.398 0.07 -0.652 0.028 -0.651 0.264 -1.089 0.887 -1.646 0.548 -0.49 0.721 -0.576 1.158 -0.576 0.592 0 1.192 0.461 2.078 1.597 0.562 0.721 0.802 1.095 0.846 1.314 0.048 0.238 -0.08 0.351 -0.148 0.132a0.5 0.5 0 0 0 -0.091 -0.188c-0.024 -0.019 -0.145 -0.233 -0.27 -0.476a4 4 0 0 0 -0.347 -0.578 1.7 1.7 0 0 1 -0.2 -0.289q-0.078 -0.154 -0.266 -0.153c-0.131 0 -0.27 -0.085 -0.456 -0.278 -0.332 -0.343 -0.642 -0.507 -1.12 -0.594 -0.418 -0.076 -0.679 0.018 -1.113 0.399 -0.51 0.448 -0.709 0.996 -0.738 2.03 -0.013 0.475 -0.042 0.648 -0.112 0.672s-0.084 -0.01 -0.053 -0.128m4.125 -0.063a0.07 0.07 0 0 1 0.068 -0.068 0.07 0.07 0 0 1 0.068 0.068 0.07 0.07 0 0 1 -0.068 0.068 0.07 0.07 0 0 1 -0.068 -0.068M9.004 31.551c-0.067 -0.092 -0.15 -0.169 -0.185 -0.17s0.009 0.074 0.097 0.168c0.204 0.217 0.245 0.218 0.088 0.002m23.93 -4.352c0.022 -0.056 0.01 -0.102 -0.027 -0.102 -0.036 0 -0.066 0.046 -0.066 0.102s0.012 0.102 0.027 0.102 0.044 -0.046 0.066 -0.102m-3.486 -16.56c0.06 -0.112 0.09 -0.124 0.134 -0.055 0.045 0.073 0.101 0.066 0.294 -0.038 0.203 -0.109 0.266 -0.116 0.424 -0.044 0.144 0.066 0.196 0.066 0.236 0.002 0.112 -0.18 0.424 -2.244 0.401 -2.644a9 9 0 0 1 0.001 -0.434c0.009 -0.409 -0.094 -0.935 -0.315 -1.605 -0.145 -0.44 -0.22 -0.558 -0.554 -0.867 -0.443 -0.41 -0.667 -0.491 -1.354 -0.492 -0.587 0 -0.969 0.13 -1.682 0.574 -0.536 0.334 -1.661 1.452 -2.016 2.004 -0.268 0.417 -0.252 0.554 0.083 0.708 0.151 0.07 0.283 0.116 0.293 0.102s0.129 -0.192 0.264 -0.398c0.442 -0.675 1.417 -1.5 1.964 -1.662 0.74 -0.22 1.504 -0.073 2 0.384 0.165 0.152 0.3 0.334 0.3 0.406s0.062 0.214 0.137 0.316c0.18 0.243 0.292 0.948 0.246 1.535 -0.04 0.501 -0.122 0.668 -0.261 0.53 -0.064 -0.064 -0.061 -0.138 0.011 -0.336 0.112 -0.31 0.096 -0.827 -0.03 -0.968 -0.051 -0.056 -0.173 -0.316 -0.271 -0.578 -0.28 -0.748 -0.665 -1.054 -1.323 -1.054 -0.8 0 -1.983 0.915 -2.68 2.072 -0.132 0.219 -0.224 0.425 -0.204 0.458 0.02 0.032 0.379 0.22 0.797 0.418 0.977 0.461 1.567 0.808 2.321 1.363 0.334 0.246 0.629 0.447 0.657 0.447s0.086 -0.065 0.129 -0.145m0.28 -0.789c0.034 -0.177 0.259 -0.197 0.259 -0.023 0 0.098 -0.044 0.141 -0.141 0.141s-0.134 -0.037 -0.118 -0.118m6.557 6.451a0.45 0.45 0 0 1 -0.112 -0.255c0 -0.13 -0.5 -0.608 -0.809 -0.772 -0.112 -0.06 -0.366 -0.078 -0.812 -0.059 -0.604 0.026 -0.634 0.022 -0.42 -0.065 0.169 -0.069 0.379 -0.082 0.793 -0.047 0.479 0.04 0.616 0.081 0.918 0.276 0.593 0.382 0.94 0.852 0.728 0.986 -0.13 0.082 -0.159 0.076 -0.286 -0.064" fill="#AD9686"/></svg>