<svg width="40px" height="40px" viewBox="0 0 1.2 1.2" fill="none" xmlns="http://www.w3.org/2000/svg"><path d="M0.192 0.2h0.225L0.488 0.381l-0.116 0.078A0.05 0.05 0 0 0 0.35 0.5c0 0.005 0 0 0 0v0.001a0.1 0.1 0 0 0 0 0.007q0 0.006 0.002 0.017c0.002 0.014 0.006 0.032 0.013 0.054 0.015 0.044 0.044 0.101 0.1 0.157s0.113 0.085 0.157 0.1c0.022 0.007 0.041 0.011 0.054 0.013a0.2 0.2 0 0 0 0.023 0.002l0.001 0h0s0.006 0 0 0a0.05 0.05 0 0 0 0.045 -0.028l0.034 -0.067 0.222 0.037v0.216c-0.106 0.015 -0.391 0.03 -0.615 -0.194S0.176 0.306 0.192 0.2m0.262 0.324 0.09 -0.06a0.1 0.1 0 0 0 0.037 -0.12L0.509 0.163A0.1 0.1 0 0 0 0.416 0.1H0.189c-0.045 0 -0.088 0.032 -0.096 0.081 -0.017 0.112 -0.04 0.443 0.221 0.705s0.592 0.238 0.705 0.221c0.049 -0.007 0.081 -0.05 0.081 -0.096v-0.219a0.1 0.1 0 0 0 -0.084 -0.099l-0.222 -0.037a0.1 0.1 0 0 0 -0.106 0.054l-0.017 0.035a0.25 0.25 0 0 1 -0.018 -0.005c-0.031 -0.01 -0.074 -0.032 -0.118 -0.075s-0.065 -0.087 -0.075 -0.118a0.25 0.25 0 0 1 -0.006 -0.022z" fill="#00a6f4"/></svg>