<svg width="40px" height="40px" viewBox="0 0 1.6 1.6" xmlns="http://www.w3.org/2000/svg"><title>file_type_reactjs</title><path cx="16" cy="15.974" r="2.5" style="fill:#00d8ff" d="M0.925 0.799A0.125 0.125 0 0 1 0.8 0.924A0.125 0.125 0 0 1 0.675 0.799A0.125 0.125 0 0 1 0.925 0.799z"/><path d="M0.8 1.085a1.42 1.42 0 0 1 -0.444 -0.06 0.565 0.565 0 0 1 -0.183 -0.098A0.177 0.177 0 0 1 0.1 0.799c0 -0.083 0.091 -0.164 0.243 -0.217A1.44 1.44 0 0 1 0.8 0.515a1.435 1.435 0 0 1 0.451 0.066 0.57 0.57 0 0 1 0.177 0.093A0.17 0.17 0 0 1 1.5 0.799c0 0.086 -0.101 0.173 -0.265 0.227a1.44 1.44 0 0 1 -0.435 0.06m0 -0.511a1.4 1.4 0 0 0 -0.437 0.064c-0.14 0.049 -0.203 0.116 -0.203 0.16 0 0.046 0.067 0.119 0.216 0.17A1.36 1.36 0 0 0 0.8 1.026a1.38 1.38 0 0 0 0.416 -0.056C1.37 0.918 1.44 0.845 1.44 0.799a0.117 0.117 0 0 0 -0.051 -0.079 0.51 0.51 0 0 0 -0.158 -0.083A1.375 1.375 0 0 0 0.8 0.574" style="fill:#00d8ff"/><path d="M0.516 1.422a0.132 0.132 0 0 1 -0.067 -0.016c-0.072 -0.041 -0.096 -0.16 -0.066 -0.319a1.44 1.44 0 0 1 0.17 -0.43 1.435 1.435 0 0 1 0.283 -0.358 0.57 0.57 0 0 1 0.169 -0.107 0.17 0.17 0 0 1 0.144 0c0.074 0.043 0.099 0.174 0.064 0.343a1.44 1.44 0 0 1 -0.166 0.407 1.42 1.42 0 0 1 -0.274 0.355 0.565 0.565 0 0 1 -0.176 0.109 0.245 0.245 0 0 1 -0.081 0.015m0.089 -0.735a1.4 1.4 0 0 0 -0.163 0.411c-0.028 0.146 -0.001 0.233 0.038 0.256 0.04 0.023 0.137 0.001 0.255 -0.102a1.36 1.36 0 0 0 0.261 -0.34 1.38 1.38 0 0 0 0.159 -0.389c0.033 -0.159 0.004 -0.256 -0.036 -0.279a0.117 0.117 0 0 0 -0.093 0.004A0.51 0.51 0 0 0 0.875 0.345a1.375 1.375 0 0 0 -0.27 0.342Z" style="fill:#00d8ff"/><path d="M1.084 1.423c-0.068 0 -0.154 -0.041 -0.243 -0.118a1.44 1.44 0 0 1 -0.287 -0.362 1.435 1.435 0 0 1 -0.169 -0.424 0.57 0.57 0 0 1 -0.008 -0.2A0.17 0.17 0 0 1 0.448 0.195c0.074 -0.043 0.201 0.001 0.329 0.116a1.44 1.44 0 0 1 0.27 0.347 1.42 1.42 0 0 1 0.171 0.414 0.565 0.565 0 0 1 0.007 0.207 0.177 0.177 0 0 1 -0.075 0.128 0.13 0.13 0 0 1 -0.066 0.016m-0.479 -0.51a1.4 1.4 0 0 0 0.275 0.346c0.112 0.097 0.202 0.118 0.24 0.095 0.04 -0.023 0.069 -0.118 0.039 -0.272A1.36 1.36 0 0 0 0.995 0.687a1.38 1.38 0 0 0 -0.257 -0.332c-0.121 -0.108 -0.22 -0.132 -0.26 -0.108a0.117 0.117 0 0 0 -0.043 0.083 0.51 0.51 0 0 0 0.008 0.178 1.375 1.375 0 0 0 0.162 0.405Z" style="fill:#00d8ff"/></svg>