<svg width="40px" height="40px" viewBox="0 0 1.6 1.6" version="1.1" xmlns="http://www.w3.org/2000/svg" xmlns:xlink="http://www.w3.org/1999/xlink"><path fill="#539E43" d="M0.8 1.445a0.097 0.097 0 0 1 -0.048 -0.013l-0.154 -0.091c-0.023 -0.013 -0.012 -0.017 -0.004 -0.02 0.031 -0.011 0.037 -0.013 0.07 -0.032 0.003 -0.002 0.008 -0.001 0.012 0.001l0.119 0.07a0.015 0.015 0 0 0 0.014 0l0.462 -0.267a0.014 0.014 0 0 0 0.007 -0.013V0.547a0.015 0.015 0 0 0 -0.007 -0.013l-0.462 -0.266a0.014 0.014 0 0 0 -0.014 0l-0.462 0.267a0.015 0.015 0 0 0 -0.007 0.013v0.533c0 0.005 0.003 0.01 0.007 0.012l0.127 0.073c0.069 0.034 0.111 -0.006 0.111 -0.047V0.593c0 -0.007 0.006 -0.013 0.013 -0.013h0.059c0.007 0 0.013 0.006 0.013 0.013v0.526c0 0.092 -0.05 0.144 -0.137 0.144 -0.027 0 -0.048 0 -0.106 -0.029L0.29 1.165a0.098 0.098 0 0 1 -0.048 -0.084V0.547c0 -0.035 0.019 -0.067 0.048 -0.084l0.462 -0.267a0.101 0.101 0 0 1 0.097 0l0.462 0.267c0.03 0.017 0.049 0.05 0.049 0.084v0.533c0 0.035 -0.019 0.067 -0.049 0.084l-0.462 0.267a0.097 0.097 0 0 1 -0.049 0.013zm0.143 -0.367c-0.202 0 -0.245 -0.093 -0.245 -0.171 0 -0.007 0.006 -0.013 0.013 -0.013h0.06c0.007 0 0.012 0.005 0.013 0.011 0.009 0.061 0.036 0.092 0.158 0.092 0.097 0 0.139 -0.022 0.139 -0.074 0 -0.03 -0.012 -0.052 -0.163 -0.067 -0.126 -0.013 -0.205 -0.04 -0.205 -0.142 0 -0.093 0.079 -0.149 0.21 -0.149 0.148 0 0.221 0.051 0.231 0.162a0.014 0.014 0 0 1 -0.013 0.015h-0.06a0.013 0.013 0 0 1 -0.013 -0.01c-0.014 -0.064 -0.049 -0.084 -0.144 -0.084 -0.106 0 -0.119 0.037 -0.119 0.065 0 0.034 0.015 0.043 0.158 0.062 0.142 0.019 0.21 0.045 0.21 0.145 0 0.101 -0.084 0.158 -0.23 0.158z"/></svg>