<svg width="40px" height="40px" viewBox="0 0 0.75 0.75" fill="none" xmlns="http://www.w3.org/2000/svg"><path d="m0.225 0.225 0.02 -0.015A0.025 0.025 0 0 0 0.2 0.225zm0.15 0.475A0.325 0.325 0 0 1 0.05 0.375H0A0.375 0.375 0 0 0 0.375 0.75zM0.7 0.375A0.325 0.325 0 0 1 0.375 0.7v0.05A0.375 0.375 0 0 0 0.75 0.375zM0.375 0.05A0.325 0.325 0 0 1 0.7 0.375h0.05A0.375 0.375 0 0 0 0.375 0zm0 -0.05A0.375 0.375 0 0 0 0 0.375h0.05A0.325 0.325 0 0 1 0.375 0.05zM0.25 0.6V0.225H0.2V0.6zm-0.045 -0.36 0.325 0.45 0.041 -0.029 -0.325 -0.45zM0.5 0.2v0.3h0.05V0.2z" fill="#ffffff"/></svg>