<svg xmlns="http://www.w3.org/2000/svg" width="40" height="9.453" viewBox="0 0 40 9.453" fill="#ffffff"><path d="M0 5.036c0.01 2.426 1.985 4.412 4.412 4.412 2.435 -0.003 4.409 -1.976 4.412 -4.411v-0.626c0.007 -1.401 1.528 -2.268 2.738 -1.562a1.82 1.82 0 0 1 0.488 0.416h2.853A4.421 4.421 0 0 0 10.642 0C8.207 0.004 6.234 1.978 6.231 4.412v0.623a1.82 1.82 0 0 1 -1.82 1.817 1.82 1.82 0 0 1 -1.817 -1.817 0.52 0.52 0 0 0 -0.52 -0.52H0.518A0.52 0.52 0 0 0 0 5.036m16.885 4.412a4.43 4.43 0 0 1 -4.258 -3.267h2.849c0.877 1.087 2.602 0.817 3.104 -0.487a1.82 1.82 0 0 0 0.121 -0.657v-0.626C18.706 1.976 20.679 0.003 23.115 0c2.403 0 4.362 1.93 4.411 4.319l0.014 0.717c0.007 1.401 1.528 2.268 2.738 1.562a1.82 1.82 0 0 0 0.488 -0.416h2.853a4.421 4.421 0 0 1 -4.261 3.267c-2.428 0 -4.403 -1.988 -4.412 -4.411l-0.014 -0.648v-0.028a1.82 1.82 0 0 0 -1.817 -1.766 1.82 1.82 0 0 0 -1.817 1.817v0.623c-0.003 2.436 -1.977 4.409 -4.412 4.412m17.293 -6.181c0.877 -1.086 2.602 -0.816 3.104 0.487a1.82 1.82 0 0 1 0.121 0.659 0.52 0.52 0 0 0 0.52 0.52h1.558a0.52 0.52 0 0 0 0.519 -0.52C39.997 1.977 38.023 0.003 35.588 0a4.422 4.422 0 0 0 -4.262 3.267z"/></svg>