<svg width="40px" height="40px" viewBox="0 0 1.6 1.6" xmlns="http://www.w3.org/2000/svg"><title>file_type_typescript</title><path d="M1.191 0.412a0.221 0.221 0 0 1 0.111 0.064 0.295 0.295 0 0 1 0.043 0.057c0.001 0.002 -0.077 0.054 -0.124 0.083 -0.002 0.001 -0.008 -0.006 -0.016 -0.017a0.1 0.1 0 0 0 -0.084 -0.05c-0.054 -0.004 -0.089 0.025 -0.088 0.072a0.065 0.065 0 0 0 0.008 0.033c0.012 0.025 0.034 0.039 0.103 0.069 0.127 0.055 0.182 0.091 0.215 0.142a0.258 0.258 0 0 1 0.021 0.217 0.238 0.238 0 0 1 -0.197 0.141 0.55 0.55 0 0 1 -0.135 -0.001 0.327 0.327 0 0 1 -0.181 -0.094 0.315 0.315 0 0 1 -0.046 -0.069 0.15 0.15 0 0 1 0.016 -0.01c0.008 -0.004 0.038 -0.022 0.066 -0.038l0.051 -0.03 0.011 0.016a0.24 0.24 0 0 0 0.068 0.065 0.165 0.165 0 0 0 0.173 -0.009 0.077 0.077 0 0 0 0.01 -0.099c-0.014 -0.02 -0.042 -0.036 -0.122 -0.071a0.44 0.44 0 0 1 -0.167 -0.103 0.235 0.235 0 0 1 -0.049 -0.089 0.355 0.355 0 0 1 -0.003 -0.113 0.217 0.217 0 0 1 0.182 -0.169 0.45 0.45 0 0 1 0.135 0.004m-0.417 0.074 0.001 0.073h-0.232v0.657H0.38V0.559H0.149V0.488a0.7 0.7 0 0 1 0.002 -0.073c0.001 -0.001 0.142 -0.002 0.312 -0.001l0.311 0.001Z" style="fill:#007acc"/></svg>